<svg width="28" height="28" viewBox="0 0 28 28" fill="none" xmlns="http://www.w3.org/2000/svg">
  <path d="M14 2C10 2 7 5 7 9C7 12 9 15 12 16V20C12 21 13 22 14 22C15 22 16 21 16 20V16C19 15 21 12 21 9C21 5 18 2 14 2Z" stroke="currentColor" stroke-width="2" fill="none"/>
  <line x1="14" y1="24" x2="14" y2="26" stroke="currentColor" stroke-width="2"/>
  <line x1="10" y1="26" x2="18" y2="26" stroke="currentColor" stroke-width="2"/>
  <circle cx="14" cy="9" r="1" fill="currentColor"/>
  <rect x="6" y="6" width="4" height="2" fill="currentColor"/>
  <rect x="6" y="9" width="4" height="2" fill="currentColor"/>
  <rect x="6" y="12" width="4" height="2" fill="currentColor"/>
</svg>
