<svg width="32" height="32" viewBox="0 0 32 32" fill="none" xmlns="http://www.w3.org/2000/svg">
  <rect x="4" y="4" width="24" height="24" rx="2" stroke="currentColor" stroke-width="2" fill="none"/>
  <line x1="4" y1="12" x2="28" y2="12" stroke="currentColor" stroke-width="1.5"/>
  <rect x="6" y="14" width="3" height="8" fill="currentColor"/>
  <rect x="11" y="16" width="3" height="6" fill="currentColor"/>
  <rect x="16" y="13" width="3" height="9" fill="currentColor"/>
  <rect x="21" y="15" width="3" height="7" fill="currentColor"/>
  <circle cx="26" cy="20" r="3" stroke="currentColor" stroke-width="2" fill="none"/>
  <path d="M26 17A3 3 0 0 1 29 20A3 3 0 0 1 26 23A3 3 0 0 1 23 20A3 3 0 0 1 26 17Z" fill="currentColor"/>
</svg>
